<svg width="35" height="35" viewBox="0 0 35 35" fill="none" xmlns="http://www.w3.org/2000/svg">
<path d="M27.7487 17.5C27.7487 17.4093 27.7847 17.3224 27.8488 17.2583C27.9129 17.1942 27.9999 17.1582 28.0905 17.1582H31.4204C31.3379 13.7026 29.9685 10.4022 27.5804 7.90315L25.2304 10.2532C25.1663 10.3173 25.0794 10.3533 24.9887 10.3533C24.8981 10.3533 24.8111 10.3173 24.747 10.2532C24.6829 10.1891 24.6469 10.1022 24.6469 10.0115C24.6469 9.92083 24.6829 9.83388 24.747 9.76977L27.0971 7.41978C24.598 5.03171 21.2976 3.66236 17.842 3.57983V6.90969C17.842 7.00034 17.806 7.08727 17.7419 7.15137C17.6778 7.21547 17.5909 7.25148 17.5002 7.25148C17.4096 7.25148 17.3226 7.21547 17.2585 7.15137C17.1944 7.08727 17.1584 7.00034 17.1584 6.90969V3.57983C13.7028 3.66236 10.4024 5.03171 7.9034 7.41978L10.2535 9.76977C10.2852 9.80152 10.3104 9.8392 10.3276 9.88068C10.3447 9.92215 10.3536 9.9666 10.3536 10.0115C10.3536 10.0564 10.3447 10.1008 10.3276 10.1423C10.3104 10.1838 10.2852 10.2215 10.2535 10.2532C10.2217 10.285 10.184 10.3101 10.1426 10.3273C10.1011 10.3445 10.0566 10.3533 10.0117 10.3533C9.96685 10.3533 9.92239 10.3445 9.88092 10.3273C9.83945 10.3101 9.80176 10.285 9.77002 10.2532L7.42003 7.90315C5.03195 10.4022 3.66261 13.7026 3.58008 17.1582H6.90993C7.00058 17.1582 7.08752 17.1942 7.15162 17.2583C7.21572 17.3224 7.25173 17.4093 7.25173 17.5C7.25173 17.5906 7.21572 17.6776 7.15162 17.7417C7.08752 17.8058 7.00058 17.8418 6.90993 17.8418H3.58008C3.66261 21.2974 5.03195 24.5978 7.42003 27.0968L9.77002 24.7468C9.83421 24.6832 9.92099 24.6476 10.0114 24.6477C10.1018 24.6479 10.1884 24.6839 10.2523 24.7478C10.3163 24.8117 10.3523 24.8984 10.3525 24.9887C10.3527 25.0791 10.3171 25.1659 10.2535 25.2301L7.9034 27.5801C10.4024 29.9682 13.7028 31.3376 17.1584 31.4201V28.0903C17.1584 27.9996 17.1944 27.9127 17.2585 27.8486C17.3226 27.7845 17.4096 27.7485 17.5002 27.7485C17.5909 27.7485 17.6778 27.7845 17.7419 27.8486C17.806 27.9127 17.842 27.9996 17.842 28.0903V31.4201C21.2977 31.3376 24.598 29.9682 27.0971 27.5801L24.747 25.2301C24.6834 25.1659 24.6478 25.0791 24.648 24.9887C24.6482 24.8984 24.6842 24.8117 24.7481 24.7478C24.8121 24.6839 24.8987 24.6479 24.9891 24.6477C25.0795 24.6476 25.1663 24.6832 25.2304 24.7468L27.5804 27.0968C29.9685 24.5978 31.3379 21.2974 31.4204 17.8418H28.0905C27.9999 17.8418 27.9129 17.8058 27.8488 17.7417C27.7847 17.6776 27.7487 17.5906 27.7487 17.5ZM22.2711 23.0132C22.2016 23.0715 22.1119 23.0998 22.0216 23.0918C21.9313 23.0839 21.8478 23.0404 21.7896 22.971L17.2383 17.5446C17.1867 17.483 17.1584 17.4052 17.1584 17.3249V11.2861C17.1584 11.1955 17.1944 11.1085 17.2585 11.0444C17.3226 10.9803 17.4096 10.9443 17.5002 10.9443C17.5909 10.9443 17.6778 10.9803 17.7419 11.0444C17.806 11.1085 17.842 11.1955 17.842 11.2861V17.2006L22.3133 22.5317C22.3716 22.6012 22.3999 22.6909 22.392 22.7812C22.384 22.8715 22.3406 22.955 22.2711 23.0132ZM25.7632 20.3301C25.5715 20.9203 25.3161 21.488 25.0015 22.0229C24.9552 22.1004 24.8801 22.1564 24.7927 22.1787C24.7053 22.201 24.6126 22.1878 24.5348 22.1421C24.457 22.0963 24.4005 22.0216 24.3776 21.9344C24.3547 21.8471 24.3672 21.7543 24.4124 21.6762C24.7017 21.1841 24.9367 20.6619 25.113 20.119C25.1266 20.076 25.1486 20.0361 25.1777 20.0017C25.2068 19.9672 25.2424 19.9389 25.2825 19.9182C25.3226 19.8976 25.3664 19.8851 25.4113 19.8815C25.4563 19.8779 25.5015 19.8832 25.5444 19.8971C25.5873 19.911 25.627 19.9333 25.6612 19.9626C25.6955 19.992 25.7236 20.0278 25.7439 20.068C25.7642 20.1083 25.7764 20.1522 25.7797 20.1971C25.783 20.2421 25.7774 20.2873 25.7632 20.3301ZM25.6128 15.7261C25.5257 15.7514 25.4322 15.741 25.3528 15.6973C25.2734 15.6536 25.2146 15.5802 25.1893 15.4931C24.754 13.9937 23.8821 12.6578 22.6848 11.6558C21.4874 10.6537 20.0189 10.0309 18.4662 9.86654C16.9136 9.70222 15.3472 10.0039 13.9666 10.7331C12.586 11.4623 11.4538 12.5861 10.7143 13.9611C9.97476 15.3362 9.66137 16.9003 9.81406 18.4541C9.96675 20.008 10.5786 21.4811 11.5717 22.686C12.5647 23.8908 13.894 24.7726 15.3901 25.2192C16.8862 25.6657 18.4814 25.6567 19.9723 25.1933C20.0589 25.1664 20.1526 25.1749 20.2328 25.2171C20.3131 25.2593 20.3733 25.3316 20.4002 25.4182C20.4271 25.5047 20.4186 25.5984 20.3764 25.6787C20.3342 25.7589 20.2619 25.8191 20.1753 25.8461C18.5556 26.3487 16.8229 26.3577 15.1979 25.8721C13.573 25.3865 12.1294 24.4281 11.0511 23.1192C9.97271 21.8102 9.30841 20.2099 9.14279 18.522C8.97717 16.8342 9.31774 15.1352 10.1211 13.6416C10.9244 12.148 12.1542 10.9274 13.6538 10.1352C15.1533 9.34295 16.8547 9.01505 18.5413 9.19323C20.2279 9.3714 21.8232 10.0476 23.1241 11.1357C24.425 12.2237 25.3726 13.6744 25.8461 15.3029C25.8713 15.39 25.861 15.4835 25.8173 15.5629C25.7736 15.6423 25.7001 15.7011 25.6131 15.7264L25.6128 15.7261Z" fill="white"/>
<path d="M33.5645 17.5C33.5645 14.3227 32.6223 11.2169 30.8571 8.57507C29.0919 5.93328 26.583 3.87427 23.6476 2.65839C20.7122 1.44251 17.4822 1.12438 14.366 1.74423C11.2498 2.36408 8.38739 3.89406 6.14074 6.14072C3.12806 9.15338 1.43555 13.2394 1.43555 17.5C1.43554 21.7606 3.12804 25.8466 6.1407 28.8593C9.15337 31.872 13.2394 33.5645 17.5 33.5645C21.7606 33.5645 25.8466 31.872 28.8593 28.8593C30.3557 27.3711 31.5421 25.6008 32.3497 23.651C33.1573 21.7011 33.5702 19.6105 33.5645 17.5ZM17.5 32.1084C13.6256 32.1084 9.90992 30.5693 7.17032 27.8297C4.43071 25.0901 2.89162 21.3744 2.89162 17.5C2.89162 9.44507 9.44509 2.8916 17.5 2.8916C25.5549 2.8916 32.1084 9.44507 32.1084 17.5C32.1084 21.3744 30.5693 25.0901 27.8297 27.8297C25.0901 30.5693 21.3744 32.1084 17.5 32.1084Z" fill="white"/>
</svg>
