<svg width="13" height="13" viewBox="0 0 13 13" fill="none" xmlns="http://www.w3.org/2000/svg">
<g clip-path="url(#clip0)">
<path d="M8.61719 6.56682L12.9998 9.33745V3.6792L8.61719 6.56682Z" fill="white"/>
<path d="M0 3.6792V9.33745L4.38263 6.56682L0 3.6792Z" fill="white"/>
<path d="M12.1875 2.03125H0.812539C0.407102 2.03125 0.0853516 2.3335 0.0244141 2.72269L6.50004 6.98913L12.9757 2.72269C12.9147 2.3335 12.593 2.03125 12.1875 2.03125Z" fill="white"/>
<path d="M7.87301 7.05745L6.72332 7.8147C6.65507 7.85939 6.57788 7.88133 6.49988 7.88133C6.42188 7.88133 6.34469 7.85939 6.27644 7.8147L5.12675 7.05664L0.0258789 10.2831C0.0884414 10.669 0.408566 10.9688 0.812379 10.9688H12.1874C12.5912 10.9688 12.9113 10.669 12.9739 10.2831L7.87301 7.05745Z" fill="white"/>
</g>
<defs>
<clipPath id="clip0">
<rect width="13" height="13" fill="white"/>
</clipPath>
</defs>
</svg>
