<svg width="42" height="42" viewBox="0 0 42 42" fill="none" xmlns="http://www.w3.org/2000/svg">
<g clip-path="url(#clip0)">
<path d="M13.335 28.8149L13.9519 28.1218C13.5012 26.6814 13.5 25.0956 13.9814 23.6314C10.436 25.5792 5.94751 24.803 3.26813 21.6339C1.27805 23.2122 0 25.651 0 28.3826V40.6873C0 41.3665 0.55125 41.9178 1.23047 41.9178H11.3679C11.2309 41.5331 11.1562 41.1188 11.1562 40.6873V34.535C11.1562 32.4251 11.9298 30.3932 13.335 28.8149Z" fill="#C0C0C0"/>
<path d="M9.84375 22.2302C13.2416 22.2302 15.9961 19.4757 15.9961 16.0779C15.9961 12.68 13.2416 9.92554 9.84375 9.92554C6.4459 9.92554 3.69141 12.68 3.69141 16.0779C3.69141 19.4757 6.4459 22.2302 9.84375 22.2302Z" fill="#C0C0C0"/>
<path d="M38.7323 21.6339C36.0481 24.8088 31.5565 25.5764 28.019 23.6306C28.4997 25.0978 28.4998 26.6794 28.0486 28.1218L28.6654 28.8149C30.0706 30.3932 30.8442 32.4251 30.8442 34.535V40.6873C30.8442 41.1188 30.7696 41.5331 30.6326 41.9178H40.77C41.4492 41.9178 42.0005 41.3665 42.0005 40.6873V28.3826C42.0005 25.651 40.7224 23.2122 38.7323 21.6339Z" fill="#C0C0C0"/>
<path d="M32.1562 22.2302C35.5541 22.2302 38.3086 19.4757 38.3086 16.0779C38.3086 12.68 35.5541 9.92554 32.1562 9.92554C28.7584 9.92554 26.0039 12.68 26.0039 16.0779C26.0039 19.4757 28.7584 22.2302 32.1562 22.2302Z" fill="#C0C0C0"/>
<path d="M21 33.3045C18.6342 33.3045 16.5252 32.1865 15.1733 30.4507C14.2054 31.5384 13.6172 32.969 13.6172 34.535V40.6874C13.6172 41.3666 14.1684 41.9178 14.8477 41.9178H27.1523C27.8316 41.9178 28.3828 41.3666 28.3828 40.6874V34.535C28.3828 32.969 27.7946 31.5384 26.8267 30.4507C25.4748 32.1865 23.3658 33.3045 21 33.3045Z" fill="#C0C0C0"/>
<path d="M21 30.8435C23.7183 30.8435 25.9219 28.6399 25.9219 25.9216C25.9219 23.2033 23.7183 20.9998 21 20.9998C18.2817 20.9998 16.0781 23.2033 16.0781 25.9216C16.0781 28.6399 18.2817 30.8435 21 30.8435Z" fill="#C0C0C0"/>
<path d="M17.4988 10.0072C18.9037 11.3056 20.2963 12.1679 20.3549 12.204C20.7505 12.4475 21.2494 12.4475 21.645 12.204C21.7037 12.1679 23.0962 11.3056 24.5011 10.0072C26.5325 8.12985 27.5625 6.30474 27.5625 4.58266C27.5625 0.671735 23.6734 -1.16404 21 1.00855C18.3206 -1.16888 14.4375 0.68207 14.4375 4.58266C14.4375 6.30474 15.4675 8.12985 17.4988 10.0072Z" fill="#C0C0C0"/>
</g>
<defs>
<clipPath id="clip0">
<rect width="42" height="42" fill="white"/>
</clipPath>
</defs>
</svg>
