<svg width="35" height="35" viewBox="0 0 35 35" fill="none" xmlns="http://www.w3.org/2000/svg">
<circle cx="17.5" cy="17.5" r="17.5" fill="white"/>
<path d="M22.0003 10.5476L21.5387 12.8281C21.486 13.071 21.2618 13.287 20.9848 13.287H16.9755C16.5271 13.287 16.1578 13.6648 16.1578 14.1236V14.6229C16.1578 15.0817 16.5271 15.4596 16.9755 15.4596H20.3649C20.6815 15.4596 20.9452 15.77 20.8793 16.1073C20.8133 16.4582 20.4573 18.2395 20.4177 18.4284C20.3913 18.6308 20.1803 18.8872 19.8638 18.8872H17.0942C16.5139 18.9007 16.3952 18.9142 16.0523 19.346C15.7094 19.7778 12.6761 23.6643 12.6761 23.6643C12.6497 23.7048 12.6233 23.6913 12.6233 23.6508V10.4396C12.6233 10.1292 12.8739 9.87282 13.1773 9.87282H21.4991C21.7893 9.87282 22.0794 10.1697 22.0003 10.5476ZM22.607 7.7002C22.607 7.7002 13.7575 7.7002 12.3332 7.7002C10.922 7.7002 10.5 8.79326 10.5 9.48148V26.1878C10.5 27.0109 10.9088 27.2538 11.133 27.3483C11.3572 27.4428 11.9507 27.5102 12.3728 27.0784C12.3728 27.0784 17.2525 21.2623 17.3316 21.1678C17.4107 21.0733 17.4503 21.0733 17.5031 21.0733C17.5558 21.0733 19.5736 21.0733 20.5891 21.0733C21.908 21.0733 22.1586 20.1422 22.3036 19.5754C22.4223 19.1031 23.7807 12.3558 24.2028 10.2237C24.5193 8.57734 24.1105 7.7002 22.607 7.7002Z" fill="#212121"/>
</svg>
