<svg width="42" height="42" viewBox="0 0 42 42" fill="none" xmlns="http://www.w3.org/2000/svg">
<path d="M20.9995 32.1831C23.1504 30.7118 25.1588 29.0422 26.9984 27.1962C29.8038 24.3597 33.1475 19.9984 33.1475 15.3293C33.1475 8.93557 27.698 3.73389 20.9996 3.73389C14.3011 3.73389 8.85156 8.93557 8.85156 15.3293C8.85156 20.003 12.2016 24.3684 15.0121 27.2075C16.8483 29.0491 18.8529 30.715 20.9995 32.1831ZM17.28 6.04413L17.5516 6.8181C17.0768 6.98486 16.6149 7.18641 16.1697 7.42111L15.7869 6.69563C16.2679 6.442 16.767 6.22424 17.28 6.04413ZM10.9917 15.7844H10.1714C10.1714 12.5045 11.8221 9.38166 14.587 7.43095L15.0599 8.10131C12.5125 9.89845 10.9917 12.7707 10.9917 15.7844ZM20.9995 8.79735C22.2626 8.79735 23.4973 9.17189 24.5475 9.8736C25.5977 10.5753 26.4162 11.5727 26.8996 12.7396C27.383 13.9065 27.5095 15.1906 27.2631 16.4294C27.0167 17.6682 26.4085 18.8061 25.5154 19.6993C24.6223 20.5924 23.4844 21.2007 22.2456 21.4472C21.0068 21.6936 19.7228 21.5672 18.5558 21.0839C17.3889 20.6006 16.3915 19.7821 15.6897 18.732C14.9879 17.6818 14.6133 16.4471 14.6132 15.1841C14.615 13.4908 15.2884 11.8674 16.4857 10.6701C17.6829 9.47277 19.3063 8.79926 20.9995 8.79735Z" fill="white"/>
<path d="M25.9605 29.3179C24.4732 30.6661 22.889 31.9035 21.2208 33.0201C21.1548 33.0623 21.0782 33.0847 20.9999 33.0847C20.9216 33.0847 20.845 33.0623 20.779 33.0201C19.1108 31.9035 17.5266 30.6661 16.0393 29.318C6.94696 29.937 2.04248 32.0355 2.04248 33.7093C2.04248 34.7983 4.04782 35.9627 7.40675 36.8241C11.0325 37.7541 15.8597 38.2661 20.9993 38.2661C26.1389 38.2661 30.9661 37.7541 34.5919 36.8241C37.9508 35.9628 39.9562 34.798 39.9562 33.7093C39.9573 32.0361 35.0527 29.937 25.9605 29.3179Z" fill="white"/>
<path d="M21.0001 20.7496C24.0741 20.7496 26.5661 18.2577 26.5661 15.1837C26.5661 12.1097 24.0741 9.61768 21.0001 9.61768C17.9261 9.61768 15.4341 12.1097 15.4341 15.1837C15.4341 18.2577 17.9261 20.7496 21.0001 20.7496Z" fill="white"/>
</svg>
