<svg width="42" height="42" viewBox="0 0 42 42" fill="none" xmlns="http://www.w3.org/2000/svg">
<g clip-path="url(#clip0)">
<path d="M27.2212 12.8632C27.2212 9.43423 24.4315 6.64453 21.0025 6.64453C17.5739 6.64453 14.7842 9.43423 14.7842 12.8632C14.7842 16.2919 17.5736 19.0816 21.0025 19.0816C24.4315 19.0816 27.2212 16.2919 27.2212 12.8632Z" fill="#C0C0C0"/>
<path d="M21.0025 34.6172C21.9661 33.362 27.6153 25.5982 29.5171 23.0043C31.7791 19.9195 33.8657 16.8244 33.8657 12.8632C33.8657 5.75917 28.1066 0.000320435 21.0025 0.000320435L21.0009 0C13.8966 0 8.13965 5.75885 8.13965 12.8629C8.13965 16.8241 10.226 19.9195 12.4879 23.0043C14.39 25.5982 21.0025 34.6172 21.0025 34.6172ZM12.3232 12.8632C12.3232 8.07719 16.2168 4.18359 21.0025 4.18359C25.7885 4.18359 29.6821 8.07719 29.6821 12.8632C29.6821 17.6489 25.7885 21.5425 21.0025 21.5425C16.2168 21.5425 12.3232 17.6489 12.3232 12.8632Z" fill="#C0C0C0"/>
<path d="M25.7267 32.337C25.472 32.685 20.9577 38.7175 20.9577 38.7175L16.2797 32.337H10.616L6.97266 42.0001H35.0331L31.3895 32.337H25.7267Z" fill="#C0C0C0"/>
</g>
<defs>
<clipPath id="clip0">
<rect width="42" height="42" fill="white"/>
</clipPath>
</defs>
</svg>
