<svg width="17" height="17" viewBox="0 0 17 17" fill="none" xmlns="http://www.w3.org/2000/svg">
<g clip-path="url(#clip0)">
<path d="M11.0184 5.20654C11.0184 3.81862 9.88924 2.68945 8.50133 2.68945C7.11354 2.68945 5.98438 3.81862 5.98438 5.20654C5.98438 6.59432 7.11341 7.72349 8.50133 7.72349C9.88924 7.72349 11.0184 6.59432 11.0184 5.20654Z" fill="white"/>
<path d="M8.50133 14.0117C8.89133 13.5037 11.1779 10.3612 11.9477 9.31127C12.8633 8.06265 13.7079 6.80988 13.7079 5.20654C13.7079 2.33109 11.3768 0.0001297 8.50133 0.0001297L8.50068 0C5.62511 0 3.29492 2.33096 3.29492 5.20641C3.29492 6.80975 4.1394 8.06265 5.05495 9.31127C5.82484 10.3612 8.50133 14.0117 8.50133 14.0117ZM4.98828 5.20654C4.98828 3.26934 6.56426 1.69336 8.50133 1.69336C10.4385 1.69336 12.0145 3.26934 12.0145 5.20654C12.0145 7.1436 10.4385 8.71958 8.50133 8.71958C6.56426 8.71958 4.98828 7.1436 4.98828 5.20654Z" fill="white"/>
</g>
<defs>
<clipPath id="clip0">
<rect width="17" height="17" fill="white"/>
</clipPath>
</defs>
</svg>
