<svg width="16" height="16" viewBox="0 0 16 16" fill="none" xmlns="http://www.w3.org/2000/svg">
<g clip-path="url(#clip0)">
<path d="M7.04606 1C3.16097 1 0 4.16097 0 8.04606C0 11.9314 3.16097 15.0921 7.04606 15.0921C10.9314 15.0921 14.0921 11.9314 14.0921 8.04606C14.0921 4.16097 10.9314 1 7.04606 1ZM7.04606 13.7913C3.87816 13.7913 1.30081 11.214 1.30081 8.04609C1.30081 4.87819 3.87816 2.30081 7.04606 2.30081C10.214 2.30081 12.7913 4.87816 12.7913 8.04606C12.7913 11.214 10.214 13.7913 7.04606 13.7913Z" fill="#A5A5A5"/>
<path d="M16.8095 15.8898L13.0805 12.1608C12.8264 11.9067 12.4149 11.9067 12.1608 12.1608C11.9067 12.4147 11.9067 12.8266 12.1608 13.0805L15.8898 16.8095C16.0168 16.9365 16.1831 17 16.3496 17C16.5159 17 16.6824 16.9365 16.8095 16.8095C17.0636 16.5556 17.0636 16.1437 16.8095 15.8898Z" fill="#A5A5A5"/>
</g>
<defs>
<clipPath id="clip0">
<rect width="16" height="16" fill="white"/>
</clipPath>
</defs>
</svg>
