<svg width="42" height="42" viewBox="0 0 42 42" fill="none" xmlns="http://www.w3.org/2000/svg">
<path d="M13.6212 14.8992H0V22.6546H18.8231L13.6212 14.8992Z" fill="#C0C0C0"/>
<path d="M15.0252 27.4619C19.6891 27.4619 23.4837 31.2563 23.4837 35.9204C23.4837 36.2529 23.464 36.5809 23.4265 36.9035H29.1018V32.1948H25.3012V29.7338H29.1018V28.5608C29.1018 26.658 27.5593 25.1155 25.6565 25.1155H0V36.9035H6.62386C6.58637 36.5809 6.56668 36.2529 6.56668 35.9205C6.56668 31.2564 10.3611 27.4619 15.0252 27.4619Z" fill="#C0C0C0"/>
<path d="M35.7925 18.4135H33.3316V39.539H22.668H19.9072C20.6591 38.5273 21.1048 37.275 21.1048 35.9204C21.1048 32.5681 18.3775 29.8408 15.0252 29.8408C11.6729 29.8408 8.94559 32.5681 8.94559 35.9204C8.94559 37.275 9.39127 38.5273 10.1432 39.539H7.38232H0V42H42V39.539H35.7925V18.4135Z" fill="#C0C0C0"/>
<path d="M34.7158 5.14148H33.6069V7.42597C34.024 7.42392 34.4513 7.42228 34.7158 7.42228C35.3592 7.42228 35.9027 6.90007 35.9027 6.28196C35.9027 5.66369 35.3592 5.14148 34.7158 5.14148Z" fill="#C0C0C0"/>
<path d="M25.9653 0V16.0346H41.9999V0H25.9653ZM34.7154 9.88312C34.4554 9.88312 34.0257 9.88485 33.6065 9.8869V13.207H31.1456V2.68053H34.7154C36.7268 2.68053 38.3632 4.29606 38.3632 6.28187C38.3632 8.26768 36.7268 9.88312 34.7154 9.88312Z" fill="#C0C0C0"/>
</svg>
