<svg width="42" height="42" viewBox="0 0 42 42" fill="none" xmlns="http://www.w3.org/2000/svg">
<path d="M24.8034 7.25763C24.8099 7.16986 24.8143 7.08176 24.8143 6.99357C24.8143 6.06339 24.4448 5.17131 23.787 4.51358C23.1293 3.85584 22.2372 3.48633 21.3071 3.48633C20.3769 3.48633 19.4848 3.85584 18.8271 4.51358C18.1693 5.17131 17.7998 6.06339 17.7998 6.99357C17.7998 7.08176 17.8043 7.16978 17.8109 7.25755C18.9097 6.76157 20.1015 6.50506 21.3071 6.50506C22.5127 6.50506 23.7045 6.76157 24.8034 7.25755V7.25763Z" fill="white"/>
<path d="M13.6172 15.0066V16.0964C13.6184 16.6898 13.7229 17.2784 13.9262 17.8359C14.0121 17.8175 14.0993 17.806 14.187 17.8016C14.2444 17.1126 14.4562 16.4454 14.8065 15.8493C15.1568 15.2533 15.6368 14.7437 16.2108 14.3584C17.0143 13.8157 17.9101 13.4243 18.8542 13.2034C17.8479 11.4839 17.6466 10.2296 17.6375 10.1702C17.621 10.0629 17.6478 9.95337 17.712 9.8658C17.7762 9.77824 17.8726 9.71977 17.9799 9.70327C18.0873 9.68677 18.1968 9.71358 18.2843 9.77781C18.3719 9.84204 18.4304 9.93842 18.4469 10.0458C18.4498 10.0643 18.6984 11.5757 20.0137 13.5089C21.1915 15.2406 23.4784 17.6644 27.7457 19.526L28.957 15.0066C28.957 13.9994 28.7586 13.002 28.3732 12.0714C27.9877 11.1409 27.4228 10.2954 26.7106 9.58314C25.9983 8.87092 25.1528 8.30596 24.2223 7.92051C23.2917 7.53506 22.2943 7.33667 21.2871 7.33667C20.2799 7.33667 19.2825 7.53506 18.352 7.92051C17.4214 8.30596 16.5759 8.87092 15.8637 9.58314C15.1514 10.2954 14.5865 11.1409 14.201 12.0714C13.8156 13.002 13.6172 13.9994 13.6172 15.0066ZM21.138 9.39065C21.2402 9.35371 21.353 9.35888 21.4514 9.40503C21.5499 9.45117 21.626 9.53452 21.663 9.63674C21.6688 9.65315 22.2668 11.2742 23.7617 13.0427C23.832 13.1258 23.8663 13.2333 23.8572 13.3417C23.8482 13.4501 23.7964 13.5505 23.7133 13.6207C23.6302 13.6909 23.5227 13.7253 23.4143 13.7162C23.3059 13.7071 23.2055 13.6554 23.1353 13.5723C21.5391 11.6842 20.9171 9.98653 20.8914 9.91524C20.8546 9.81297 20.8599 9.70028 20.9061 9.60192C20.9524 9.50357 21.0358 9.42758 21.138 9.39065Z" fill="white"/>
<path d="M23.9528 27.4154V27.0134C23.7067 27.1506 23.4688 27.3162 23.1938 27.3982H23.7697C23.8475 27.3982 23.9528 27.3895 23.9528 27.4154Z" fill="white"/>
<path d="M23.2887 32.8833L23.8014 30.4382C23.7911 30.4386 23.7809 30.4337 23.7704 30.4337H20.5084C20.1609 30.4337 19.8516 30.163 19.8516 29.8155V28.0056C19.8627 27.911 19.8942 27.8199 19.9438 27.7387C19.285 27.6511 18.6444 27.4581 18.0469 27.167V29.5408L18.7277 32.8877C20.1962 33.4506 21.8213 33.4491 23.2887 32.8833Z" fill="white"/>
<path d="M20.8772 26.9815C22.431 26.98 23.9208 26.3626 25.0202 25.2646C26.1196 24.1667 26.7389 22.6776 26.7424 21.1238V19.9494C22.7229 18.0522 20.513 15.6762 19.3399 13.9429C18.3841 14.1236 17.4749 14.4963 16.6672 15.0385C16.1482 15.3883 15.7236 15.8608 15.431 16.4141C15.1384 16.9674 14.9869 17.5844 14.9899 18.2103C14.99 18.3191 14.9468 18.4236 14.8699 18.5006C14.793 18.5776 14.6886 18.621 14.5798 18.6211H14.2664C14.1821 18.6259 14.0993 18.6444 14.021 18.6757L14.4102 20.1797H14.5798C14.8064 20.1797 15.0119 20.3336 15.0119 20.5601V21.1238C15.0154 22.6776 15.6347 24.1667 16.7341 25.2646C17.8335 26.3626 19.3234 26.98 20.8772 26.9815Z" fill="white"/>
<path d="M27.3203 24.4773L29.528 16.0305L30.5672 16.3021L28.3595 24.7489L27.3203 24.4773Z" fill="white"/>
<path d="M30.7205 29.9414H24.7478L22.5117 40.6055H31.0076V35.1085C31.0131 33.4052 31.5768 31.7507 32.6123 30.3984C32.0278 30.0956 31.3787 29.9389 30.7205 29.9414Z" fill="white"/>
<path d="M20.9961 34.1379C20.2878 34.1407 19.583 34.0393 18.9043 33.8369L20.3167 40.6056H21.6737L23.0917 33.8375C22.4117 34.04 21.7056 34.1412 20.9961 34.1379Z" fill="white"/>
<path d="M33.2917 30.8394C32.3444 32.061 31.8296 33.5626 31.8281 35.1084V40.6054H34.8633V34.0921C34.8627 33.4667 34.7211 32.8494 34.4491 32.2862C34.177 31.7231 33.7814 31.2285 33.2917 30.8394Z" fill="white"/>
<path d="M11.2796 29.9414C10.5844 29.9384 9.89946 30.1087 9.28662 30.4368C10.3432 31.8012 10.9145 33.479 10.91 35.2046V40.6055H19.4785L17.252 29.9414H11.2796ZM13.371 38.3058C13.371 38.4145 13.3277 38.5189 13.2508 38.5958C13.1739 38.6727 13.0696 38.7159 12.9608 38.7159C12.852 38.7159 12.7477 38.6727 12.6708 38.5958C12.5939 38.5189 12.5506 38.4145 12.5506 38.3058V34.5323C12.5506 34.4235 12.5939 34.3192 12.6708 34.2423C12.7477 34.1654 12.852 34.1222 12.9608 34.1222C13.0696 34.1222 13.1739 34.1654 13.2508 34.2423C13.3277 34.3192 13.371 34.4235 13.371 34.5323V38.3058ZM13.371 32.9737C13.371 33.0825 13.3277 33.1868 13.2508 33.2638C13.1739 33.3407 13.0696 33.3839 12.9608 33.3839C12.852 33.3839 12.7477 33.3407 12.6708 33.2638C12.5939 33.1868 12.5506 33.0825 12.5506 32.9737V32.4573C12.5506 32.3486 12.5939 32.2442 12.6708 32.1673C12.7477 32.0904 12.852 32.0472 12.9608 32.0472C13.0696 32.0472 13.1739 32.0904 13.2508 32.1673C13.3277 32.2442 13.371 32.3486 13.371 32.4573V32.9737Z" fill="white"/>
<path d="M7.13633 34.0922V40.6055H10.0895V35.2046C10.0978 33.6423 9.57905 32.1228 8.617 30.8918C8.1496 31.2832 7.77449 31.7731 7.51851 32.3263C7.26254 32.8796 7.13203 33.4826 7.13633 34.0922Z" fill="white"/>
<path d="M11.4595 16.3186L12.4987 16.047L14.7063 24.4937L13.6671 24.7654L11.4595 16.3186Z" fill="white"/>
<path d="M20.9998 1.4021C14.9131 1.4021 9.92557 6.35392 9.92557 12.4406V17.0132C9.67895 17.2648 9.50167 17.5759 9.41101 17.9163C9.32034 18.2567 9.31937 18.6148 9.4082 18.9557L10.5827 23.451C10.7105 23.9378 11.0136 24.3603 11.4337 24.6374C11.8538 24.9145 12.3615 25.0268 12.8593 24.9526L10.7329 16.8144L10.7459 16.8091V12.4406C10.7459 6.80624 15.3654 2.22241 20.9998 2.22241C26.6342 2.22241 31.2537 6.80624 31.2537 12.4406V16.8087L31.2667 16.814L29.1403 24.9522C29.6381 25.0263 30.1458 24.9141 30.5659 24.637C30.986 24.3599 31.289 23.9374 31.4169 23.4506L32.5914 18.9553C32.6801 18.6145 32.6791 18.2565 32.5885 17.9161C32.4978 17.5758 32.3206 17.2647 32.074 17.0132V12.4406C32.074 6.35392 27.0865 1.4021 20.9998 1.4021Z" fill="white"/>
<path d="M29.2852 27.2519V25.5117L28.4648 25.2656V27.2519C28.4662 27.4124 28.4354 27.5714 28.3743 27.7198C28.3132 27.8682 28.2231 28.0028 28.1092 28.1158C27.9953 28.2289 27.86 28.3179 27.7111 28.3779C27.5623 28.4378 27.403 28.4674 27.2426 28.4648H23.543V28.2188H20.6719V29.6133H23.543V29.2852H27.2426C27.5107 29.2876 27.7766 29.2367 28.0249 29.1355C28.2732 29.0343 28.499 28.8848 28.689 28.6956C28.879 28.5065 29.0296 28.2814 29.1319 28.0336C29.2343 27.7858 29.2864 27.5201 29.2852 27.2519Z" fill="white"/>
</svg>
