<svg width="42" height="42" viewBox="0 0 42 42" fill="none" xmlns="http://www.w3.org/2000/svg">
<path d="M10.7505 7.26724H19.1788L14.9646 3.0531L10.7505 7.26724Z" fill="#C0C0C0"/>
<path d="M11.9468 15.5658C11.9468 15.9824 11.609 16.3202 11.1924 16.3202C10.7758 16.3202 10.438 15.9824 10.438 15.5658C10.438 15.1492 10.7758 14.8114 11.1924 14.8114C11.609 14.8114 11.9468 15.1492 11.9468 15.5658Z" fill="#C0C0C0"/>
<path d="M31.5621 15.5658C31.5621 15.9824 31.2243 16.3202 30.8076 16.3202C30.391 16.3202 30.0532 15.9824 30.0532 15.5658C30.0532 15.1492 30.391 14.8114 30.8076 14.8114C31.2243 14.8114 31.5621 15.1492 31.5621 15.5658Z" fill="#C0C0C0"/>
<path d="M31.2492 7.26721L24.0174 0.0354004L19.0488 5.00395L21.3121 7.26721H31.2492Z" fill="#C0C0C0"/>
<path d="M0 41.9705H41.9999L36.9492 8.77612H5.0507L0 41.9705ZM33.8251 10.285H35.3339C35.7505 10.285 36.0883 10.6228 36.0883 11.0394C36.0883 11.456 35.7505 11.7938 35.3339 11.7938H33.8251C33.4084 11.7938 33.0707 11.456 33.0707 11.0394C33.0707 10.6228 33.4084 10.285 33.8251 10.285ZM33.0707 15.5659C33.0681 16.6154 32.3446 17.5256 31.3227 17.7643C30.2891 22.6404 25.9843 26.1285 21 26.1285C16.0156 26.1285 11.7108 22.6404 10.6772 17.7643C9.59968 17.5168 8.85742 16.5288 8.91931 15.4248C8.98119 14.3212 9.82955 13.4224 10.9277 13.2967C12.0261 13.1711 13.0553 13.8548 13.3651 14.9165C13.6746 15.9777 13.1747 17.1079 12.1808 17.5923C13.1231 21.704 16.7818 24.6193 21 24.6193C25.2185 24.6193 28.8768 21.704 29.8191 17.5923C28.8116 17.1031 28.3132 15.9508 28.6473 14.8815C28.981 13.8125 30.0467 13.1483 31.1537 13.3196C32.2602 13.4909 33.0754 14.4461 33.0707 15.5659ZM6.666 10.285H30.8074C31.224 10.285 31.5618 10.6228 31.5618 11.0394C31.5618 11.456 31.224 11.7938 30.8074 11.7938H6.666C6.24937 11.7938 5.91158 11.456 5.91158 11.0394C5.91158 10.6228 6.24937 10.285 6.666 10.285Z" fill="#C0C0C0"/>
</svg>
